<?xml version="1.0" encoding="utf-8"?>
<!-- Svg Vector Icons : http://www.onlinewebfonts.com/icon -->
<!DOCTYPE svg PUBLIC "-//W3C//DTD SVG 1.1//EN" "http://www.w3.org/Graphics/SVG/1.1/DTD/svg11.dtd">
<svg version="1.1" xmlns="http://www.w3.org/2000/svg" xmlns:xlink="http://www.w3.org/1999/xlink" x="0px" y="0px" viewBox="0 0 1000 1000" enable-background="new 0 0 1000 1000" xml:space="preserve">
<metadata> Svg Vector Icons : http://www.onlinewebfonts.com/icon </metadata>
<g><g transform="translate(0.000000,338.000000) scale(0.100000,-0.100000)"><path d="M100-1620v-3253.8h4900h4900V-1620v3253.8H5000H100V-1620z M9591.9-50.8v-1395.9H7277.7H4961.5L2878.3-56.6C1730.8,707.7,793.1,1335.4,793.1,1339.3c0,1.9,1979.2,5.8,4399.4,5.8h4399.4V-50.8z M2576-222.2l2083.2-1388.2L2579.8-2996.6C1436.2-3759.1,475.4-4398.3,444.6-4417.5l-55.8-36.6v2843.7v2843.7l53.9-34.7C471.6,1181.4,1432.3,540.2,2576-222.2z M9591.9-3169.9v-1395.9H5188.7c-2541.5,0-4395.6,7.7-4384,17.3c9.6,9.6,949.2,637.3,2087.1,1395.9L4961.5-1774h2314.3h2316.2V-3169.9z"/></g></g>
</svg>