<svg width="424" height="512" viewBox="0 0 424 512" fill="none" xmlns="http://www.w3.org/2000/svg">
<g clip-path="url(#clip0_252_193)">
<path d="M174.43 443.27H21.31C9.54 443.27 0 433.73 0 421.97V21.3C0 9.51 9.52 0 21.31 0H222.25C225.89 0 229.22 1.66 231.4 4.36L336.24 106.45C341.88 112.09 344.86 116.52 344.86 117.88L344.84 253.23C337.25 250.03 329.31 247.51 321.08 245.74L321.07 132.12H222.25C215.61 132.12 210.31 126.71 210.31 120.17V23.69H23.8V419.47H164.06C166.76 427.79 170.24 435.75 174.43 443.27ZM265.32 363.85L281.86 379.62L316.77 343.72C319.5 340.95 321.22 338.72 324.59 342.2L335.52 353.4C339.11 356.95 338.94 359.03 335.55 362.34L288.11 409.58C280.97 416.58 282.21 417.01 274.97 409.83L246.91 381.91C245.4 380.28 245.56 378.63 247.21 377L259.91 363.83C261.83 361.8 263.36 361.98 265.32 363.85ZM292.5 274.17C321.09 274.17 346.98 285.76 365.72 304.5C384.47 323.24 396.05 349.13 396.05 377.73C396.05 398.65 389.85 418.12 379.18 434.41L424 483.26L393.1 511.51L349.87 463.95C333.45 474.9 313.72 481.29 292.5 481.29C263.9 481.29 238.01 469.69 219.28 450.95C200.53 432.21 188.94 406.32 188.94 377.73C188.94 349.13 200.53 323.24 219.27 304.5C238.01 285.76 263.9 274.17 292.5 274.17ZM352.12 318.1C336.87 302.84 315.79 293.4 292.5 293.4C269.21 293.4 248.13 302.84 232.88 318.1C217.62 333.36 208.18 354.44 208.18 377.73C208.18 401.01 217.62 422.1 232.88 437.35C248.13 452.61 269.21 462.04 292.5 462.04C315.79 462.04 336.87 452.61 352.12 437.35C367.38 422.09 376.82 401.01 376.82 377.73C376.82 354.44 367.38 333.36 352.12 318.1ZM63.27 201.12H281.29V185.78H63.27V201.12ZM63.27 370.21H157.69C157.97 365.01 158.56 359.89 159.41 354.87H63.27V370.21ZM63.27 313.85H173.52C176.39 308.51 179.62 303.38 183.15 298.51H63.27V313.85ZM63.27 257.48H231.03C246.4 249.61 263.49 244.6 281.59 243.15V242.15H63.27V257.48ZM63.27 88.39H135.17V73.06H63.27V88.39ZM63.27 144.76H165.33V129.42H63.27V144.76Z" fill="white"/>
</g>
<defs>
<clipPath id="clip0_252_193">
<rect width="424" height="511.51" fill="white"/>
</clipPath>
</defs>
</svg>
